<?xml version="1.0" encoding="UTF-8" standalone="no"?>
<!-- Created with Inkscape (http://www.inkscape.org/) -->

<svg
   version="1.1"
   id="svg1"
   width="329.28"
   height="327.67999"
   viewBox="0 0 329.28 327.67999"
   sodipodi:docname="PCSX2_logo.png"
   xmlns:inkscape="http://www.inkscape.org/namespaces/inkscape"
   xmlns:sodipodi="http://sodipodi.sourceforge.net/DTD/sodipodi-0.dtd"
   xmlns:xlink="http://www.w3.org/1999/xlink"
   xmlns="http://www.w3.org/2000/svg"
   xmlns:svg="http://www.w3.org/2000/svg">
  <defs
     id="defs1">
    <linearGradient
       id="linearGradient1"
       inkscape:collect="always">
      <stop
         style="stop-color:#263e8c;stop-opacity:1"
         offset="0"
         id="stop1" />
      <stop
         style="stop-color:#4ab5fe;stop-opacity:1"
         offset="1"
         id="stop2" />
    </linearGradient>
    <linearGradient
       inkscape:collect="always"
       xlink:href="#linearGradient1"
       id="linearGradient2"
       x1="300.69122"
       y1="295.36926"
       x2="3.9914763"
       y2="6.6524606"
       gradientUnits="userSpaceOnUse" />
  </defs>
  <sodipodi:namedview
     id="namedview1"
     pagecolor="#ffffff"
     bordercolor="#000000"
     borderopacity="0.25"
     inkscape:showpageshadow="2"
     inkscape:pageopacity="0.0"
     inkscape:pagecheckerboard="0"
     inkscape:deskcolor="#d1d1d1">
    <inkscape:page
       x="0"
       y="0"
       width="329.28"
       height="327.67999"
       id="page2"
       margin="0"
       bleed="0" />
  </sodipodi:namedview>
  <g
     inkscape:groupmode="layer"
     inkscape:label="Image"
     id="g1">
    <path
       style="fill:url(#linearGradient2);fill-opacity:1;stroke:none"
       d="m 163.04465,18.848205 c -6.43803,0.5833 -11.7919,7.782538 -16,11.990624 -11.35402,11.354023 -22.55932,22.879316 -33.92,34.24 -3.40358,3.403574 -6.92312,6.926601 -9.68913,10.879999 -1.13951,1.628672 -2.56824,3.667752 -2.36173,5.760002 0.54972,5.56933 6.77659,10.72572 10.45086,14.4 6.83582,6.83582 13.5641,13.7382 20.48,20.48468 4.01727,3.91887 7.85383,8.56225 12.8,11.36543 5.59293,3.16973 11.93481,-5.38494 15.36,-8.81011 l 27.52001,-27.52 c 2.46668,-2.46668 7.37482,-8.82321 11.2,-8.82321 2.77225,0 6.18291,3.83131 7.9874,5.63581 1.99149,1.99148 7.13506,6.57109 7.12051,9.5874 -0.0122,2.54078 -4.18873,5.40082 -5.82791,7.04 -4.91514,4.91513 -11.68262,10.04804 -14.39408,16.64 -3.48992,8.48447 8.29967,15.87508 15.67408,14.18222 4.1557,-0.95398 7.66279,-4.88613 10.56,-7.78222 6.42707,-6.42459 13.41963,-12.67258 18.64912,-20.16 2.16266,-3.09643 5.50137,-7.84231 4.58471,-11.84 -0.66623,-2.90547 -3.9667,-5.51854 -5.86272,-7.68 -5.43554,-6.19656 -11.22283,-12.09172 -17.05111,-17.920002 -4.96246,-4.96246 -9.72246,-10.643359 -15.36,-14.838515 -2.42947,-1.80789 -4.81094,-3.676133 -8,-3.36791 -4.68344,0.452656 -9.37598,6.142402 -12.48,9.246426 -8.59032,8.590312 -17.00829,17.328281 -25.60001,25.920001 -2.87962,2.87963 -5.74257,5.77709 -8.64,8.63877 -1.24918,1.23377 -2.63596,2.9241 -4.48,1.83086 -4.48051,-2.65627 -8.35168,-7.65412 -11.86864,-11.42963 -1.02992,-1.10563 -3.55691,-2.78098 -3.44766,-4.48 0.0953,-1.4826 1.91774,-3.13965 2.86494,-4.16 2.89445,-3.118009 5.77471,-6.158088 8.93136,-9.014318 6.00908,-5.437207 11.54944,-11.495136 17.28,-17.225683 4.52475,-4.524746 9.49586,-8.866016 13.61951,-13.76 1.79236,-2.127207 4.03,-4.743027 3.96295,-7.68 -0.13074,-5.727382 -8.53359,-11.851542 -14.06246,-11.350624 M 80.164653,98.8482 c -6.90639,1.58268 -12.84142,10.11205 -17.6,14.87063 l -26.24,26.24 c -5.04884,5.04884 -10.76477,9.89627 -14.98914,15.68 -4.55701,6.23916 -1.15056,15.91269 6.98914,17.45037 5.54423,1.04736 10.6955,-3.75096 14.4,-7.20248 9.12602,-8.50276 17.7414,-17.4293 26.56,-26.24789 2.89817,-2.89817 5.62273,-5.93057 8.6447,-8.69555 1.02745,-0.94008 2.30167,-2.80285 3.8353,-2.82742 2.70755,-0.0434 6.20923,4.0632 8,5.77556 2.42473,2.31856 8.49386,6.99707 8.83606,10.54741 0.15358,1.59349 -1.42771,3.04879 -2.35729,4.16 -2.71063,3.24025 -5.73203,6.29326 -8.71877,9.28 l -23.68,23.68 c -3.62899,3.62898 -8.99715,8.10757 -10.02099,13.44 -0.63114,3.28714 2.26426,6.86585 4.15482,9.28 5.45374,6.96417 12.41976,12.95359 18.66617,19.2 5.07217,5.07216 9.94768,10.56015 15.36,15.2674 1.99189,1.7324 4.83203,4.06533 7.68,3.44197 2.662357,-0.58273 4.833787,-3.14109 6.333087,-5.26938 9.15498,-12.99554 -7.968597,-23.7155 -16.253087,-31.99999 -2.08671,-2.08672 -4.07044,-4.23487 -6.07185,-6.4 -0.67851,-0.73403 -1.84109,-1.75073 -1.51012,-2.88 0.39492,-1.34748 2.14413,-2.56215 3.10197,-3.52 2.51132,-2.51133 5.17056,-4.85153 7.68,-7.36 8.646777,-8.64346 17.479037,-17.0793 25.932597,-25.92 3.72042,-3.89082 8.88784,-8.47703 8.25184,-14.4 -0.62441,-5.81506 -6.31109,-10.52043 -10.18444,-14.4 -4.74468,-4.75231 -9.32855,-9.64856 -14.08,-14.4 -4.667117,-4.66713 -9.141107,-9.91065 -14.399997,-13.91901 -2.33496,-1.77972 -5.26291,-3.57218 -8.32,-2.87162 m 173.440007,10.53928 c -5.29586,0.94459 -9.58691,4.63682 -13.44,8.11703 -6.32565,5.7135 -12.21154,11.94586 -18.24,17.97432 -2.31979,2.31978 -9.01424,7.04715 -8.05111,10.88 1.06568,4.24101 6.3541,8.54259 9.33111,11.52 7.79596,7.79699 15.70646,15.42824 23.68,23.05259 6.37932,6.09994 12.35941,12.59342 18.55877,18.86741 1.61523,1.63468 4.35,6.22201 7.04123,5.80271 2.21262,-0.34473 4.15869,-3.28641 5.53137,-4.84271 3.26488,-3.70165 6.97886,-7.07024 10.46863,-10.56 l 14.72,-14.72 c 2.37717,-2.37809 5.84791,-5.52426 6.59506,-8.96 1.10353,-5.07455 -2.99006,-9.82973 -6.27506,-13.12 -7.62518,-7.63746 -15.08885,-15.40885 -22.72,-23.04 -5.71619,-5.71619 -11.20738,-12.36434 -17.6,-17.3158 -2.71768,-2.105 -5.97508,-4.30211 -9.6,-3.65555 m -78.08001,27.89555 c -2.81524,0.80443 -5.28027,3.29019 -7.36,5.22789 -3.59328,3.34789 -7.08479,6.77269 -10.56,10.24791 -8.26721,8.2672 -16.37953,16.69953 -24.64,24.96 -5.15079,5.15078 -11.02393,10.08632 -15.30939,16 -4.96629,6.8532 -1.92014,18.94968 7.62939,20.31777 5.322,0.76244 10.19489,-6.19266 13.44,-9.43777 l 26.56,-26.56 c 2.99293,-2.99293 7.26746,-9.2561 11.52,-10.33729 2.58008,-0.65598 6.01597,2.99936 7.68001,4.58988 2.71566,2.59569 5.24299,5.33666 7.54394,8.30741 1.10559,1.42738 2.27309,2.75345 1.13926,4.49259 -2.82144,4.32772 -7.29084,7.87506 -10.9232,11.50741 l -20.80001,20.8 c -4.34313,4.34312 -10.5894,9.35007 -12.56024,15.35999 -1.85496,5.65653 2.47876,11.73551 6.15234,15.68 8.26618,8.87575 16.79475,18.15348 26.56791,25.39852 4.02152,2.98125 9.4831,6.36064 14.72,5.15211 6.37189,-1.47049 12.23162,-9.82225 16.64,-14.23063 9.64834,-9.64832 19.14535,-19.46535 28.8,-29.12 4.97478,-4.97478 11.82467,-10.41228 14.75037,-16.95999 2.27658,-5.09497 -6.56422,-12.97897 -11.23037,-13.69186 -5.68531,-0.86859 -11.16234,5.01475 -14.5358,8.89186 -7.88363,9.06066 -16.96912,17.42492 -25.4642,25.91999 -2.79055,2.79055 -5.31967,5.83889 -8.32,8.40668 -1.10307,0.94405 -2.56289,2.56291 -4.16,2.46321 -2.31682,-0.14465 -4.79488,-2.75237 -6.4,-4.2042 -2.55209,-2.3084 -7.78843,-7.05072 -7.78964,-10.82569 -6.1e-4,-1.89953 1.55876,-3.72306 2.67087,-5.12 2.70027,-3.39185 5.90529,-6.22652 8.95877,-9.27999 8.25969,-8.25969 16.85855,-16.30008 24.69432,-24.96 2.94994,-3.2602 7.47459,-6.63836 8.46074,-11.2 0.80367,-3.71754 -2.06656,-6.98577 -4.31334,-9.6 -5.77959,-6.72487 -12.64998,-12.60827 -18.92172,-18.88 -5.38049,-5.38049 -10.53965,-11.42274 -16.64,-15.99877 -2.21625,-1.66246 -4.98878,-4.17748 -8.00001,-3.31703 m -51.84,98.25851 c -2.04278,0.52252 -3.69715,2.83435 -5.12,4.25728 -4.00962,4.00989 -10.86999,10.10373 -7.68593,16.32 3.02257,5.90098 8.8287,10.42278 13.44593,15.04 8.16087,8.16088 16.16569,16.48569 24.32,24.64 3.76847,3.76848 7.45769,7.79272 11.84,10.8684 1.96923,1.38209 4.23799,2.69971 6.72,1.99926 5.03846,-1.42193 9.27928,-6.38309 12.79532,-9.98766 1.10258,-1.13035 3.31992,-3.019 3.03112,-4.8 -0.25176,-1.5525 -1.99649,-2.77564 -3.01383,-3.84 -2.45206,-2.56537 -4.68117,-5.34673 -7.03656,-8 -9.6333,-10.85154 -19.98431,-21.04644 -30.73605,-30.77431 -4.40484,-3.98539 -8.45467,-8.34957 -12.8,-12.39705 -1.40212,-1.306 -3.59916,-3.87864 -5.76,-3.32592 z"
       id="path1" />
  </g>
</svg>
