<?xml version="1.0" encoding="UTF-8" standalone="no"?>
<!-- Created with Inkscape (http://www.inkscape.org/) -->

<svg
   version="1.1"
   id="svg1"
   width="2048"
   height="2048"
   viewBox="0 0 2048 2048"
   sodipodi:docname="Retroarch.png"
   inkscape:export-filename="Retroarch.svg"
   inkscape:export-xdpi="96"
   inkscape:export-ydpi="96"
   xmlns:inkscape="http://www.inkscape.org/namespaces/inkscape"
   xmlns:sodipodi="http://sodipodi.sourceforge.net/DTD/sodipodi-0.dtd"
   xmlns="http://www.w3.org/2000/svg"
   xmlns:svg="http://www.w3.org/2000/svg">
  <defs
     id="defs1" />
  <sodipodi:namedview
     id="namedview1"
     pagecolor="#ffffff"
     bordercolor="#000000"
     borderopacity="0.25"
     inkscape:showpageshadow="2"
     inkscape:pageopacity="0.0"
     inkscape:pagecheckerboard="0"
     inkscape:deskcolor="#d1d1d1">
    <inkscape:page
       x="0"
       y="0"
       width="2048"
       height="2048"
       id="page2"
       margin="0"
       bleed="0" />
  </sodipodi:namedview>
  <g
     inkscape:groupmode="layer"
     inkscape:label="Image"
     id="g1">
    <path
       style="fill:#010101;stroke:none"
       d="m 585,491.82319 c 8.81451,19.24256 29.24719,37.65174 42.75,54 29.65454,35.90394 60.52142,71.59351 88.25,109 H 521 471 l -19.43597,1.02771 -4.93747,14.97229 -10,40 -34.25312,137 -9.24688,37 -4.69059,14.39661 L 377,900.82319 H 346 225 l 13.37346,-52 24.49998,-98 15.5,-62 7.62656,-34 h -120.00001 -30 c -3.3385,0 -9.4667,-1.15442 -12.2724,1.02771 -6.0519,4.70691 -7.5082,25.58838 -9.3541,32.97229 l -23.246901,93 -60.5,242.00001 c -10.2212,40.8845 -22.1085005,81.7312 -30.62660055,123 H 328 l -20.37344,80 -20.62656,84 h 286 c -45.27496,49.1537 -87.99677,100.8356 -132.15509,151 -26.96896,30.6371 -58.41959,60.6143 -81.84491,94 h 177 46 c 5.25171,0 14.13806,1.7043 18.56097,-1.6034 6.27405,-4.6921 11.34803,-13.2921 16.2392,-19.3966 10.19574,-12.725 20.52747,-25.3456 30.81091,-38 33.85877,-41.6653 68.01825,-83.1018 101.58875,-125 12.35626,-15.4214 25.05267,-30.5715 37.40051,-46 4.60742,-5.7568 9.29846,-14.6296 17.39966,-14.9807 35.51746,-1.5393 71.44513,-0.019 107,-0.019 h 214 88 c 9.576,0 27.4185,-3.4407 35.9607,1.0278 5.7583,3.0122 10.0424,11.0586 14.1204,15.9722 10.9686,13.2162 21.7873,26.5908 32.5192,40 34.8838,43.5865 70.6916,86.4326 105.5995,130 10.7451,13.4106 21.6068,26.7506 32.5502,40 4.3142,5.2233 8.7487,13.512 14.6782,16.9722 4.8162,2.8105 14.1397,1.0278 19.5718,1.0278 h 47 174 c -23.425,-33.3857 -54.876,-63.3629 -81.8448,-94 -44.1583,-50.1649 -86.8802,-101.847 -132.1552,-151.0003 h 286 l -20.6266,-84 -20.3734,-80 h 328 c -8.6564,-41.9399 -20.7393,-83.4507 -31.1266,-125 l -60,-240.00001 -23.2468,-93 c -1.846,-7.38379 -3.3024,-28.2655 -9.3543,-32.97229 -2.8057,-2.18213 -8.9337,-1.02771 -12.2723,-1.02771 h -30 -120 l 7.6266,34 15.5,62 24.5,98 13.3734,52 h -121 -31 l -11.436,-1.60339 -4.6906,-14.39661 -9.2468,-37 -34.2532,-137 -10,-40 -4.9374,-14.97229 -19.436,-1.02771 h -50 -195 c 29.3169,-39.54858 62.4143,-76.57764 93.1998,-115 11.8457,-14.78418 30.0961,-30.71497 37.8002,-48 h -126 -33 c -4.7048,0 -10.8469,-1.04761 -14.9961,1.60339 -13.4327,8.58228 -24.8271,27.37171 -35.2855,39.39661 -24.1276,27.74133 -48.2604,55.50525 -72.6682,83 -7.9363,8.94006 -15.82,17.94641 -23.6266,27 -3.1527,3.65637 -6.812,9.60339 -11.4629,11.39661 -6.0673,2.33947 -15.51,0.60339 -21.9607,0.60339 h -50 c -55.8231,0 -112.23615,2.39771 -168,-0.0193 -6.80737,-0.29503 -10.4563,-6.2025 -14.57642,-10.9807 -8.38531,-9.72473 -16.84863,-19.39722 -25.37341,-29 -24.10998,-27.15894 -47.93573,-54.59729 -71.76855,-82 -10.72211,-12.32813 -21.34278,-28.73242 -34.29627,-38.68213 -4.22156,-3.24267 -9.97278,-2.31787 -14.98535,-2.31787 H 713 585 m 183,327 V 982.8232 H 604 V 818.82319 h 164 m 676,0 V 982.8232 H 1280 V 818.82319 Z"
       id="path1" />
  </g>
</svg>
