<?xml version="1.0" encoding="UTF-8" standalone="no"?>
<!-- Created with Inkscape (http://www.inkscape.org/) -->

<svg
   version="1.1"
   id="svg1"
   width="4096"
   height="4096"
   viewBox="0 0 4096 4096"
   sodipodi:docname="rpcs3.png"
   xmlns:inkscape="http://www.inkscape.org/namespaces/inkscape"
   xmlns:sodipodi="http://sodipodi.sourceforge.net/DTD/sodipodi-0.dtd"
   xmlns="http://www.w3.org/2000/svg"
   xmlns:svg="http://www.w3.org/2000/svg">
  <defs
     id="defs1" />
  <sodipodi:namedview
     id="namedview1"
     pagecolor="#ffffff"
     bordercolor="#000000"
     borderopacity="0.25"
     inkscape:showpageshadow="2"
     inkscape:pageopacity="0.0"
     inkscape:pagecheckerboard="0"
     inkscape:deskcolor="#d1d1d1">
    <inkscape:page
       x="0"
       y="0"
       width="4096"
       height="4096"
       id="page2"
       margin="0"
       bleed="0" />
  </sodipodi:namedview>
  <g
     inkscape:groupmode="layer"
     inkscape:label="Image"
     id="g1">
    <path
       style="fill:#010101;stroke:none"
       d="m 712.18849,178.48209 c -18.8332,2.4737 -38.0556,2.366 -57,4.8575 -43.1045,5.6687 -85.3842,16.6794 -126,32.1425 -165.6631,63.0708 -291.8964,207.908 -336.8457,378.5757 -25.0269,95.0247 -17.1543,195.6761 -17.1543,293.00003 v 458.99998 1511 367 c 0,67.4387 -3.3288,135.8914 3.1698,203 9.0401,93.3547 45.9448,184.9998 100.2577,261 25.679,35.9326 55.8002,69.1338 89.5725,97.5903 66.9488,56.4107 145.5317,98.2683 231,118.5254 73.9769,17.5335 148.536,14.8843 224,14.8843 h 286.99991 1561 499 149 c 48.8633,0 96.707,0.1404 145,-8.25 237.918,-41.3357 423.0693,-241.4961 452.7153,-479.75 4.458,-35.8271 3.2847,-71.9351 3.2847,-108 v -151 -472 -1442 -381.99998 c 0,-62.36183 4.7366,-126.94193 -1.1697,-189.00003 -9.9409,-104.4497 -46.519,-205.2439 -110.4846,-289 -27.5271,-36.0439 -58.9832,-68.769 -94.3457,-97.196 -82.9963,-66.7185 -184.9622,-109.0274 -291,-119.635 -59.8557,-5.9878 -120.8352,-3.169 -181,-3.169 h -264 -1523 -496.99991 -163 c -27.0411,0 -56.2003,-3.0957 -83,0.4243 m 122,1018.86501 c 19.3846,-2.5181 40.4476,-0.2893 60,-0.2893 h 117.00001 363.9999 c 374.3159,0 748.7729,1 1123,1 h 127 c 58.8328,0 118.3538,-1.9304 177,2.0894 131.9375,9.0432 275.9722,47.6132 376,138.0803 107.0762,96.8418 145,233.8303 145,373.8303 0,63.1343 -5.9717,125.5635 -25.6697,186 -13.2492,40.6511 -31.5825,80.1072 -56.4714,115 -7.8025,10.9385 -15.6548,22.2122 -24.8943,32 -2.9548,3.1304 -10.925,9.3496 -10.9099,14 0.014,4.2417 7.2497,10.0806 9.97,13 8.7192,9.3584 16.3181,19.6609 23.8232,30 23.7295,32.6902 42.1379,69.8149 55.1489,108 21.8289,64.0632 29.0032,129.7444 29.0032,197 0,119.019 -26.3103,239.1382 -105.4275,332 -106.5217,125.0269 -275.8281,169.1064 -433.5725,179.9106 -54.886,3.7593 -110.9521,1.0894 -166,1.0894 -413.7207,0 -827.2776,1 -1241,1 h -408.99991 -105 c -17.4768,0 -36.8644,2.166 -52,-8.4399 -25.4112,-17.8064 -23,-45.0279 -23,-72.5601 v -140 c 0,-22.697 -3.5398,-48.8123 1.4252,-71 5.0143,-22.4082 23.2411,-37.3721 45.5748,-40.5718 18.0312,-2.5835 37.7847,-0.4282 56,-0.4282 h 111.00001 339.9999 1046 c 89.7019,0 179.3584,-1 269,-1 54.2717,0 113.4749,2.9702 160,-30.4282 43.8193,-31.4561 55.7415,-87.8609 57.9607,-138.5718 1.0227,-23.3687 -0.4504,-48.1543 -5.6111,-71 -4.1555,-18.396 -9.814,-36.5454 -19.2224,-53 -40.6697,-71.1287 -128.2007,-68 -199.1272,-68 h -146 c -413.3882,0 -826.6461,-1 -1240,-1 H 906.18849 c -39.3147,0 -104.1995,12.3433 -116.3456,-39 -5.3758,-22.7241 -1.6544,-49.7041 -1.6544,-73 v -143 c 0,-27.4954 -0.973,-54.5322 26,-70.5249 14.6133,-8.6646 32.7464,-6.4751 49,-6.4751 h 93 354.99991 c 331.2422,0 662.6729,-1 994,-1 111.0835,0 223.0825,3.8933 334,-0.9607 45.0471,-1.9714 90.2087,4.5935 134,-9.3835 15.6135,-4.9834 30.626,-11.4673 44,-21.084 53.0073,-38.1153 59.6567,-109.7598 57.0393,-169.5718 -2.3171,-52.9492 -19.2869,-108.6692 -68.0393,-136.5725 -49.9568,-28.5925 -104.2197,-21.0696 -159,-23.4668 -111.9133,-4.8975 -224.9197,-0.9607 -337,-0.9607 h -451 c -236.7203,0 -473.2771,-1 -710,-1 H 901.18849 c -30.0665,0 -73.2939,8.4509 -96.9853,-14.0903 -20.421,-19.4297 -16.0147,-48.3401 -16.0147,-73.9097 v -134 c 0,-22.0823 -3.3864,-47.3748 1.2107,-69 4.7238,-22.2212 22.4108,-37.8037 44.7893,-40.7107 z"
       id="path1" />
  </g>
</svg>
