<?xml version="1.0" encoding="UTF-8" standalone="no"?>
<svg
   width="22"
   height="22"
   version="1.1"
   id="svg7"
   sodipodi:docname="steam.svg"
   xmlns:inkscape="http://www.inkscape.org/namespaces/inkscape"
   xmlns:sodipodi="http://sodipodi.sourceforge.net/DTD/sodipodi-0.dtd"
   xmlns="http://www.w3.org/2000/svg"
   xmlns:svg="http://www.w3.org/2000/svg">
  <defs
     id="defs7" />
  <sodipodi:namedview
     id="namedview7"
     pagecolor="#ffffff"
     bordercolor="#000000"
     borderopacity="0.25"
     inkscape:showpageshadow="2"
     inkscape:pageopacity="0.0"
     inkscape:pagecheckerboard="0"
     inkscape:deskcolor="#d1d1d1">
    <inkscape:page
       x="0"
       y="0"
       width="22"
       height="22"
       id="page2"
       margin="0"
       bleed="0" />
  </sodipodi:namedview>
  <circle
     style="opacity:0.2"
     cx="11"
     cy="11.5"
     r="10"
     id="circle1" />
  <path
     style="fill:#1955aa"
     d="m 21,11 c 0,5.522847 -4.477153,10 -10,10 -4.5922215,0 -8.4614659,-3.095433 -9.635047,-7.313614 -0.2378294,-0.854825 0.4709603,-0.48641 0.4709603,-1.417036 0,-0.201549 -0.8299507,-1.671056 -0.8181922,-1.869653 C 1.3281686,5.156339 5.678702,1 11,1 16.522847,1 21,5.4771525 21,11 Z"
     id="path1" />
  <path
     style="opacity:0.2"
     d="M 14,5.5 A 4,4 0 0 0 10.00586,9.323242 L 8.097656,12.503906 A 3,3 0 0 0 8,12.5 3,3 0 0 0 6.211914,13.095703 L 1.0322265,10.861328 A 10,10 0 0 0 1,11.5 10,10 0 0 0 1.4013672,14.28711 L 5.022461,15.848633 A 3,3 0 0 0 8,18.5 a 3,3 0 0 0 3,-3 3,3 0 0 0 -0.0039,-0.08105 l 3.31543,-1.93457 A 4,4 0 0 0 18,9.5 4,4 0 0 0 14,5.5 Z M 14,7 A 2.5,2.5 0 0 1 16.5,9.5 2.5,2.5 0 0 1 14,12 2.5,2.5 0 0 1 11.5,9.5 2.5,2.5 0 0 1 14,7 Z m 0,0.5 a 2,2 0 0 0 -2,2 2,2 0 0 0 2,2 2,2 0 0 0 2,-2 2,2 0 0 0 -2,-2 z m -6,6 a 2,2 0 0 1 2,2 2,2 0 0 1 -2,2 2,2 0 0 1 -1.805664,-1.145508 l 1.211914,0.522461 a 1.50015,1.50015 0 1 0 1.1875,-2.753906 L 7.381836,13.600586 A 2,2 0 0 1 8,13.5 Z"
     id="path2" />
  <path
     style="fill:#ffffff"
     d="m 10.5,8 1.5,3.5 4,0.5 -6,3.5 V 13 H 7.5 Z"
     id="path3" />
  <path
     style="fill:#ffffff"
     d="m 14,5 a 4,4 0 0 0 -4,4 4,4 0 0 0 4,4 4,4 0 0 0 4,-4 4,4 0 0 0 -4,-4 z m 0,1.5 A 2.5,2.5 0 0 1 16.5,9 2.5,2.5 0 0 1 14,11.5 2.5,2.5 0 0 1 11.5,9 2.5,2.5 0 0 1 14,6.5 Z"
     id="path4" />
  <path
     style="fill:#ffffff"
     d="m 8,12 a 3,3 0 0 0 -3,3 3,3 0 0 0 3,3 3,3 0 0 0 3,-3 3,3 0 0 0 -3,-3 z m 0,1 a 2,2 0 0 1 2,2 2,2 0 0 1 -2,2 2,2 0 0 1 -2,-2 2,2 0 0 1 2,-2 z"
     id="path5" />
  <circle
     style="fill:#ffffff"
     cx="14"
     cy="9"
     r="2"
     id="circle5" />
  <path
     style="fill:#ffffff"
     d="M 1.0322265,10.361328 A 10,10 0 0 0 1,11 10,10 0 0 0 1.4013672,13.78711 L 7.40625,16.376953 a 1.50015,1.50015 0 1 0 1.1875,-2.753906 z"
     id="path6" />
  <path
     style="opacity:0.1;fill:#ffffff"
     d="M 11,1 A 10,10 0 0 0 1,11 10,10 0 0 0 1.0107422,11.291016 10,10 0 0 1 11,1.5 10,10 0 0 1 20.989258,11.208985 10,10 0 0 0 21,11 10,10 0 0 0 11,1 Z"
     id="path7" />
</svg>
