<?xml version="1.0" encoding="UTF-8" standalone="no"?>
<!-- Created with Inkscape (http://www.inkscape.org/) -->

<svg
   version="1.1"
   id="svg1"
   width="24"
   height="24"
   viewBox="0 0 24 24"
   sodipodi:docname="ashyterm.svg"
   xml:space="preserve"
   inkscape:export-filename="ashy_terminal.svg"
   inkscape:export-xdpi="96"
   inkscape:export-ydpi="96"
   xmlns:inkscape="http://www.inkscape.org/namespaces/inkscape"
   xmlns:sodipodi="http://sodipodi.sourceforge.net/DTD/sodipodi-0.dtd"
   xmlns:xlink="http://www.w3.org/1999/xlink"
   xmlns="http://www.w3.org/2000/svg"
   xmlns:svg="http://www.w3.org/2000/svg"><defs
     id="defs1"><linearGradient
       id="linearGradient13"
       inkscape:collect="always"><stop
         style="stop-color:#0b0b28;stop-opacity:1"
         offset="0"
         id="stop13" /><stop
         style="stop-color:#1c1c24;stop-opacity:1"
         offset="0.99989998"
         id="stop15" /><stop
         style="stop-color:#ececec;stop-opacity:1"
         offset="1"
         id="stop14" /></linearGradient><linearGradient
       inkscape:collect="always"
       xlink:href="#linearGradient13"
       id="linearGradient14"
       x1="18"
       y1="18"
       x2="4.0198512"
       y2="3.8411913"
       gradientUnits="userSpaceOnUse" /><clipPath
       id="ede0acc75f"><path
         d="M 11.554688 44.914062 L 213.691406 44.914062 L 213.691406 179.835938 L 11.554688 179.835938 Z M 11.554688 44.914062 "
         clip-rule="nonzero"
         id="path1-5" /></clipPath></defs><sodipodi:namedview
     id="namedview1"
     pagecolor="#ffffff"
     bordercolor="#000000"
     borderopacity="0.25"
     inkscape:showpageshadow="2"
     inkscape:pageopacity="0.0"
     inkscape:pagecheckerboard="0"
     inkscape:deskcolor="#d1d1d1"><inkscape:page
       x="0"
       y="0"
       inkscape:label="1"
       id="page1"
       width="24"
       height="24"
       margin="0"
       bleed="0" /></sodipodi:namedview><g
     id="g1"
     inkscape:groupmode="layer"
     inkscape:label="1"><path
       id="path3"
       d="m 5.699,0.75 h 6.602 c 2.742,0 4.949,2.207 4.949,4.949 v 6.602 c 0,2.742 -2.207,4.949 -4.949,4.949 H 5.699 C 2.957,17.25 0.75,15.043 0.75,12.301 V 5.699 C 0.75,2.957 2.957,0.75 5.699,0.75 Z"
       transform="scale(1.3333333)"
       style="fill:url(#linearGradient14);stroke:none;fill-opacity:1" /><path
       fill="#191919"
       d="m 14.692136,13.551008 c -0.613368,0 -1.110788,-0.495488 -1.110788,-1.106924 0,-0.611437 0.49742,-1.106924 1.110788,-1.106924 0.613756,0 1.111176,0.495487 1.111176,1.106924 v 3.95e-4 c -3.96e-4,0.611437 -0.497807,1.106538 -1.111176,1.106538 m 0,-2.354533 c -0.69144,0 -1.251859,0.558487 -1.251859,1.247608 0,0.689123 0.560419,1.247609 1.251859,1.247609 0.691441,0 1.25186,-0.558486 1.252247,-1.247222 0,-0.688735 -0.560033,-1.247609 -1.251474,-1.247995 z m 0,0"
       fill-opacity="1"
       fill-rule="nonzero"
       id="path4"
       style="stroke-width:0.0989429" /><path
       fill="#383838"
       d="m 9.5668155,10.941002 c 0.8850755,0 1.6027985,0.715017 1.6027985,1.597 0,0.881983 -0.717723,1.597 -1.6027985,1.597 -0.8854619,0 -1.6027981,-0.715017 -1.6027981,-1.597 0,-0.881983 0.7173362,-1.597 1.6027981,-1.597"
       fill-opacity="1"
       fill-rule="nonzero"
       id="path5"
       style="stroke-width:0.0989429" /><path
       fill="#191919"
       d="m 7.0673471,8.2022921 c 0.6705702,0 1.2143699,0.5418671 1.2143699,1.2101184 0,0.6678645 -0.5437997,1.2097315 -1.2143699,1.2097315 -0.6705702,0 -1.2143699,-0.541867 -1.2143699,-1.2097315 0,-0.6682513 0.5437997,-1.2101184 1.2143699,-1.2101184"
       fill-opacity="1"
       fill-rule="nonzero"
       id="path11"
       style="stroke-width:0.0989429" /><g
       id="g3"
       transform="matrix(0.84721792,0,0,0.84721792,1.833385,1.833385)"><g
         clip-path="url(#ede0acc75f)"
         id="g2"
         transform="matrix(0.09894293,0,0,0.09894293,0.85674574,0.88128824)"
         style="fill:#e6e6e6"><path
           fill="#1f1f21"
           d="m 145.6875,145.875 c 5.78125,0 11.375,2.05078 15.77734,5.78125 0.10547,0.0859 0.20313,0.17969 0.30078,0.27734 l 22.60547,23.49219 c 0.0703,0.0703 0.14063,0.14063 0.21485,0.20703 7.03125,6.41797 18.1875,5.38672 23.76562,-2.33984 14.05078,-19.46094 -2.07031,-66.5 -20.05859,-108.13672 -0.39063,-0.878906 -1.11328,-1.566406 -2.01172,-1.910156 l -1.16016,-0.460938 c -1.1289,-0.4375 -1.96484,-1.414062 -2.22265,-2.597656 -0.71875,-3.3125 -2.92188,-6.113281 -5.97657,-7.605469 -18.57812,-9.105469 -30.22265,-9.75 -36.39062,-3.726562 -0.67969,0.6875 -1.60156,1.082031 -2.57031,1.097656 H 87.285156 C 86.308594,49.9375 85.375,49.539062 84.691406,48.839844 c -6.164062,-6.023438 -17.804687,-5.375 -36.382812,3.726562 -3.058594,1.492188 -5.257813,4.296875 -5.980469,7.609375 -0.25,1.183594 -1.078125,2.164063 -2.207031,2.609375 l -1.160156,0.460938 c -0.902344,0.351562 -1.628907,1.046875 -2.011719,1.933594 C 18.964844,106.78516 2.84375,153.83203 16.894531,173.29297 c 5.578125,7.73828 16.738281,8.74609 23.765625,2.33984 0.07422,-0.0625 0.144532,-0.13281 0.214844,-0.20703 l 22.605469,-23.49219 c 0.09766,-0.0977 0.195312,-0.1914 0.300781,-0.27734 4.402344,-3.73047 9.996094,-5.78125 15.777344,-5.78125 z m 0,0"
           fill-opacity="1"
           fill-rule="nonzero"
           id="path2"
           style="fill:#e6e6e6" /></g><path
         fill="#383838"
         d="m 14.692136,11.33716 c 0.613756,0 1.111176,0.495487 1.111176,1.106924 0,0.611436 -0.49742,1.106924 -1.111176,1.106924 -0.613368,0 -1.110788,-0.495488 -1.110788,-1.106924 0,-0.611437 0.49742,-1.106924 1.110788,-1.106924"
         fill-opacity="1"
         fill-rule="nonzero"
         id="path3-3"
         style="stroke-width:0.0989429" /><path
         fill="#191919"
         d="m 9.5668155,14.135002 c -0.8854619,0 -1.6027981,-0.715017 -1.6027981,-1.597 0,-0.881983 0.7173362,-1.597 1.6027981,-1.597 0.8850755,0 1.6027985,0.715017 1.6027985,1.597 0,0.881983 -0.717723,1.597 -1.6027985,1.597 m 0,-3.379132 c -0.9878833,0 -1.7887026,0.797727 -1.7887026,1.782132 0,0.984018 0.8008193,1.782133 1.7887026,1.782133 0.9878835,0 1.7887035,-0.798115 1.7887035,-1.782133 0,-0.984405 -0.80082,-1.782132 -1.7887035,-1.782132"
         fill-opacity="1"
         fill-rule="nonzero"
         id="path6"
         style="stroke-width:0.0989429" /><path
         fill="#898989"
         d="m 10.579435,12.067251 h -0.540708 v -0.53839 c 0,-0.149959 -0.1221328,-0.272093 -0.2732527,-0.272093 H 9.3654512 c -0.1507334,0 -0.272866,0.122134 -0.272866,0.272093 v 0.53839 H 8.55381 c -0.1507334,0 -0.2732525,0.121746 -0.2732525,0.272093 v 0.398476 c 0,0.150347 0.1225191,0.272093 0.2732525,0.272093 h 0.5399347 v 0.53839 c 0,0.150346 0.1225191,0.272093 0.2732525,0.272093 h 0.4000232 c 0.1507334,0 0.2732526,-0.121747 0.2732526,-0.272093 v -0.539549 h 0.539935 c 0.151119,0 0.273253,-0.121746 0.273253,-0.272093 v -0.398477 c -7.92e-4,-0.150347 -0.123293,-0.27132 -0.274026,-0.270933"
         fill-opacity="1"
         fill-rule="nonzero"
         id="path7"
         style="stroke-width:0.0989429" /><path
         fill="#383838"
         d="m 10.632771,8.9834001 c 0.237695,0 0.430556,0.191702 0.430556,0.4290104 0,0.236922 -0.192861,0.4286239 -0.430556,0.4286239 -0.238081,0 -0.430556,-0.1917019 -0.430556,-0.4286239 0,-0.2373084 0.192475,-0.4290104 0.430556,-0.4290104"
         fill-opacity="1"
         fill-rule="nonzero"
         id="path8"
         style="stroke-width:0.0989429" /><path
         fill="#383838"
         d="m 13.581734,8.9834001 c 0.237695,0 0.430557,0.191702 0.430557,0.4290104 0,0.236922 -0.192862,0.4286239 -0.430557,0.4286239 -0.237695,0 -0.430556,-0.1917019 -0.430556,-0.4286239 0,-0.2373084 0.192861,-0.4290104 0.430556,-0.4290104"
         fill-opacity="1"
         fill-rule="nonzero"
         id="path10"
         style="stroke-width:0.0989429" /><path
         fill="#383838"
         d="m 7.0673471,8.3217193 c 0.6044794,0 1.0945561,0.4881441 1.0945561,1.0906912 0,0.6021605 -0.4900767,1.0903045 -1.0945561,1.0903045 -0.6044795,0 -1.0945562,-0.488144 -1.0945562,-1.0903045 0,-0.6025471 0.4900767,-1.0906912 1.0945562,-1.0906912"
         fill-opacity="1"
         fill-rule="nonzero"
         id="path12"
         style="stroke-width:0.0989429" /><path
         fill="#16b7ef"
         d="m 15.944383,8.7437727 c 0.370263,0 0.67057,0.2991478 0.67057,0.6686378 0,0.3691035 -0.300307,0.6682515 -0.67057,0.6682515 -0.370649,0 -0.670957,-0.299148 -0.670957,-0.6682515 0,-0.36949 0.300308,-0.6686378 0.670957,-0.6686378"
         fill-opacity="1"
         fill-rule="nonzero"
         id="path13"
         style="stroke-width:0.0989429" /><path
         fill="#00e530"
         d="m 17.28591,10.087619 c 0.37065,0 0.670956,0.299147 0.670956,0.668251 0,0.369103 -0.300306,0.668251 -0.670956,0.668251 -0.37065,0 -0.670957,-0.299148 -0.670957,-0.668251 0,-0.369104 0.300307,-0.668251 0.670957,-0.668251"
         fill-opacity="1"
         fill-rule="nonzero"
         id="path14"
         style="stroke-width:0.0989429" /><path
         fill="#ffef22"
         d="m 17.28591,7.4003133 c 0.37065,0 0.670956,0.2991477 0.670956,0.6682512 0,0.3691035 -0.300306,0.6682513 -0.670956,0.6682513 -0.37065,0 -0.670957,-0.2991478 -0.670957,-0.6682513 0,-0.3691035 0.300307,-0.6682512 0.670957,-0.6682512"
         fill-opacity="1"
         fill-rule="nonzero"
         id="path15"
         style="stroke-width:0.0989429" /><path
         fill="#ea3b3b"
         d="m 18.627437,8.7437727 c 0.370649,0 0.670957,0.2991478 0.670957,0.6686378 0,0.3691035 -0.300308,0.6682515 -0.670957,0.6682515 -0.370263,0 -0.670571,-0.299148 -0.670571,-0.6682515 0,-0.36949 0.300308,-0.6686378 0.670571,-0.6686378"
         fill-opacity="1"
         fill-rule="nonzero"
         id="path16"
         style="stroke-width:0.0989429" /></g></g></svg>
